<svg xmlns="http://www.w3.org/2000/svg" xmlns:xlink="http://www.w3.org/1999/xlink" version="1.1" width="256" height="256" viewBox="0 0 256 256" xml:space="preserve">
<desc>Created with Fabric.js 1.7.22</desc>
<defs>
</defs>
<g transform="translate(128 128) scale(0.72 0.72)" style="">
	<g style="stroke: none; stroke-width: 0; stroke-dasharray: none; stroke-linecap: butt; stroke-linejoin: miter; stroke-miterlimit: 10; fill: none; fill-rule: nonzero; opacity: 1;" transform="translate(-175.05 -175.05000000000004) scale(3.89 3.89)" >
	<linearGradient id="SVGID_1" gradientUnits="userSpaceOnUse" x1="45" y1="84.7883" x2="45" y2="4.2607">
<stop offset="0%" style="stop-color:rgb(33,97,172);stop-opacity: 1"/>
<stop offset="100%" style="stop-color:rgb(43,127,226);stop-opacity: 1"/>
</linearGradient>
<circle cx="45" cy="45" r="45" style="stroke: none; stroke-width: 1; stroke-dasharray: none; stroke-linecap: butt; stroke-linejoin: miter; stroke-miterlimit: 10; fill: url(#SVGID_1); fill-rule: nonzero; opacity: 1;" transform="  matrix(1 0 0 1 0 0) "/>
	<path d="M 53.558 52.363 H 43.117 c 0.112 2.933 0.909 5.101 2.393 6.501 c 1.483 1.4 3.931 2.1 7.346 2.1 c 2.208 0 4.172 -0.336 5.89 -1.005 l 1.439 9.033 C 57.217 69.664 54.284 70 51.383 70 c -6.024 0 -10.827 -1.561 -14.407 -4.686 c -3.581 -3.123 -5.461 -7.44 -5.639 -12.951 h -5.522 v -5.356 h 5.522 v -4.049 h -5.522 v -5.355 h 5.622 c 0.424 -5.533 2.499 -9.85 6.225 -12.951 C 41.388 21.551 46.307 20 52.421 20 c 2.365 0 4.952 0.347 7.764 1.037 l -1.439 9.036 c -1.74 -0.691 -3.604 -1.037 -5.589 -1.037 c -3.079 0 -5.433 0.698 -7.062 2.092 c -1.629 1.394 -2.588 3.553 -2.878 6.475 h 10.341 v 5.355 H 43.117 v 4.049 h 10.441 V 52.363 z" style="stroke: none; stroke-width: 1; stroke-dasharray: none; stroke-linecap: butt; stroke-linejoin: miter; stroke-miterlimit: 10; fill: rgb(255,255,255); fill-rule: nonzero; opacity: 1;" transform=" matrix(1 0 0 1 0 0) " stroke-linecap="round" />
</g>
</g>
</svg>